{"title":"Restaurant.Impossible.S08E13","uid":10365006,"size":391404165,"categoryP":"video","categoryS":"tv_shows","magnet":"?xt=urn:btih:f6d2deefed7c2d9a0dc16929b6c8a3548a705b7a&amp;dn=Restaurant.Impossible.S08E13&amp;tr=udp%3A%2F%2Ftracker.openbittorrent.com%3A80&amp;tr=udp%3A%2F%2Fopen.demonii.com%3A1337&amp;tr=udp%3A%2F%2Ftracker.coppersurfer.tk%3A6969&amp;tr=udp%3A%2F%2Fexodus.desync.com%3A6969","seeders":6,"leechers":0,"uploader":"azybuzza","files":1,"time":1402861878,"description":"\nSource:\n\n\nRestaurant.Impossible.S08E13.720p.WEB-DL.AAC2.0.h264-SCD.mkv\n\n\nRe-encoded into smaller file 640x360:\n\n\nRestaurant.Impossible.S08E13.re-encoded.from.720p.WEB-DL.AAC2.0.h264-SCD.mp4\n\n\n\n\nFormat                                   : MPEG-4\nFormat profile                           : Base Media\nCodec ID                                 : isom\nFile size                                : 373 MiB\nDuration                                 : 42mn 9s\nOverall bit rate                         : 1 238 Kbps\nPart/Position                            : 8\nPart/Total                               : 0\nTrack name/Position                      : 13\nTrack name/Total                         : 0\nEncoded date                             : UTC 2014-06-15 17:21:28\nTagged date                              : UTC 2014-06-15 17:23:44\nWriting application                      : MkvToMp4 [www.mkvtomp4.ru] version: 0.224 (x32)\ntvsh                                     : Restaurant Impossible\ntvsn                                     : 8\ntves                                     : 13\nsosn                                     : Restaurant Impossible\nhdvd                                     : 0\nstik                                     : 10\n\nVideo\nID                                       : 1\nFormat                                   : AVC\nFormat/Info                              : Advanced Video Codec\nFormat profile                           : &lt;a class=&quot;__cf_email__&quot; href=&quot;/cdn-cgi/l/email-protection&quot; data-cfemail=&quot;367e5f515e767a021807&quot;&gt;[email&amp;#160;protected]&lt;/a&gt;&lt;script cf-hash='f9e31' type=&quot;text/javascript&quot;&gt;\n/* &lt;![CDATA[ */!function(){try{var t=&quot;currentScript&quot;in document?document.currentScript:function(){for(var t=document.getElementsByTagName(&quot;script&quot;),e=t.length;e--;)if(t[e].getAttribute(&quot;cf-hash&quot;))return t[e]}();if(t&amp;&amp;t.previousSibling){var e,r,n,i,c=t.previousSibling,a=c.getAttribute(&quot;data-cfemail&quot;);if(a){for(e=&quot;&quot;,r=parseInt(a.substr(0,2),16),n=2;a.length-n;n+=2)i=parseInt(a.substr(n,2),16)^r,e+=String.fromCharCode(i);e=document.createTextNode(e),c.parentNode.replaceChild(e,c)}}}catch(u){}}();/* ]]&gt; */&lt;/script&gt;\nFormat settings, CABAC                   : Yes\nFormat settings, ReFrames                : 4 frames\nCodec ID                                 : avc1\nCodec ID/Info                            : Advanced Video Coding\nDuration                                 : 42mn 9s\nBit rate                                 : 1 074 Kbps\nMaximum bit rate                         : 5 058 Kbps\nWidth                                    : 640 pixels\nHeight                                   : 360 pixels\nDisplay aspect ratio                     : 16:9\nFrame rate mode                          : Constant\nFrame rate                               : 23.976 fps\nColor space                              : YUV\nChroma subsampling                       : 4:2:0\nBit depth                                : 8 bits\nScan type                                : Progressive\nBits/(Pixel*Frame)                       : 0.194\nStream size                              : 324 MiB (87%)\nWriting library                          : x264 core 133 r2334 a3ac64b\nEncoding settings                        : cabac=1 / ref=1 / deblock=1:0:0 / analyse=0x3:0x3 / me=dia / subme=1 / psy=1 / psy_rd=1.00:0.00 / mixed_ref=0 / me_range=16 / chroma_me=1 / trellis=0 / 8x8dct=1 / cqm=0 / deadzone=21,11 / fast_pskip=1 / chroma_qp_offset=0 / threads=1 / lookahead_threads=1 / sliced_threads=0 / nr=0 / decimate=1 / interlaced=0 / bluray_compat=0 / constrained_intra=0 / bframes=3 / b_pyramid=2 / b_adapt=1 / b_bias=0 / direct=1 / weightb=1 / open_gop=0 / weightp=1 / keyint=250 / keyint_min=23 / scenecut=40 / intra_refresh=0 / rc=crf / mbtree=0 / crf=20.0 / qcomp=0.60 / qpmin=0 / qpmax=69 / qpstep=4 / ip_ratio=1.40 / pb_ratio=1.30 / aq=1:1.00\nLanguage                                 : English\nEncoded date                             : UTC 2014-06-15 17:21:28\nTagged date                              : UTC 2014-06-15 17:22:34\n\nAudio\nID                                       : 2\nFormat                                   : AAC\nFormat/Info                              : Advanced Audio Codec\nFormat profile                           : LC\nCodec ID                                 : 40\nDuration                                 : 42mn 9s\nBit rate mode                            : Variable\nBit rate                                 : 156 Kbps\nMaximum bit rate                         : 251 Kbps\nChannel(s)                               : 2 channels\nChannel positions                        : Front: L R\nSampling rate                            : 48.0 KHz\nCompression mode                         : Lossy\nStream size                              : 47.0 MiB (13%)\nLanguage                                 : English\nEncoded date                             : UTC 2014-06-15 17:22:25\nTagged date                              : UTC 2014-06-15 17:22:34\n\n\n\n","torrent":{"xt":"urn:btih:f6d2deefed7c2d9a0dc16929b6c8a3548a705b7a","amp;dn":"Restaurant.Impossible.S08E13","amp;tr":["udp%3A%2F%2Ftracker.openbittorrent.com%3A80","udp%3A%2F%2Fopen.demonii.com%3A1337","udp%3A%2F%2Ftracker.coppersurfer.tk%3A6969","udp%3A%2F%2Fexodus.desync.com%3A6969"],"infoHash":"f6d2deefed7c2d9a0dc16929b6c8a3548a705b7a","infoHashBuffer":{"type":"Buffer","data":[246,210,222,239,237,124,45,154,13,193,105,41,182,200,163,84,138,112,91,122]},"announce":[],"urlList":[]}}